# xmcd
#
# Track frame offsets:
#	150
#	11247
#	20994
#	34062
#	49533
#	62277
#	73347
#	87063
#	99780
#	114306
#	124431
#	139362
#	152322
#	166740
#	174300
#
# Disc length: 2537 seconds
#
# Revision: 0
# Processed by: cddbd v1.5.2PL0 Copyright (c) Steve Scherf et al.
# Submitted via: EasyCDDAExtractor 11.1.0.1
#
DISCID=bc09e70f
DTITLE=Craig Duncan and others - Country Gospel Bluegrass Collection
DYEAR=1900
DGENRE=Country Gospel
TTITLE0=I saw the light
TTITLE1=Do lord
TTITLE2=When we all get to heaven
TTITLE3=Bringing in the sheaves
TTITLE4=When the roll is called up yonder
TTITLE5=Just a little talk with jesus
TTITLE6=Leaning on the everlasting arms
TTITLE7=Shall we gather at the river
TTITLE8=This is my father's world
TTITLE9=Old time religion
TTITLE10=At calvary
TTITLE11=Tis so sweet to trust in jesus
TTITLE12=Count your blessings
TTITLE13=Are you washed in the blood
TTITLE14=This world is not my home
EXTD=
EXTT0=
EXTT1=
EXTT2=
EXTT3=
EXTT4=
EXTT5=
EXTT6=
EXTT7=
EXTT8=
EXTT9=
EXTT10=
EXTT11=
EXTT12=
EXTT13=
EXTT14=
PLAYORDER=
